PathFileType  4	(X/Y/Z) C:\Users\antoi\Documents\MyRepositories\mobilecap\ResultsAnalysis
DataRate	CameraRate	NumFrames	NumMarkers	Units	OrigDataRate	OrigDataStartFrame	OrigNumFrames
100.0	100.0	4	55	mm	100.0	98	781
Frame#	Time	r_knee			r_shank_antsup			r_ankle			r_calc			r_5meta			r_toe			L_knee			L_shank_antsup			L_ankle			L_calc			L_5meta			L_toe			r_mknee			r_mankle			L_mknee			L_mankle			r_sh2			r_sh3			r_sh4			L_sh2			L_sh3			r_thigh1			r_thigh2			r_thigh3			r_thigh4			r_thigh5			L_thigh1			L_thigh2			L_thigh3			L_thigh4			r.ASIS			r.PSIS			L.ASIS			L.PSIS			C7			R_Shoulder			L_Shoulder			R_Sternum			L_Sternum			R_humerus			R_elbow_med			R_elbow_lat			R_forearm			R_wrist_radius			R_wrist_ulna			L_humerus			L_elbow_med			L_elbow_lat			L_forearm			L_wrist_radius			L_wrist_ulna			R_HJC			L_HJC			R_HJC_reg			L_HJC_reg			
		X1	Y1	Z1	X2	Y2	Z2	X3	Y3	Z3	X4	Y4	Z4	X5	Y5	Z5	X6	Y6	Z6	X7	Y7	Z7	X8	Y8	Z8	X9	Y9	Z9	X10	Y10	Z10	X11	Y11	Z11	X12	Y12	Z12	X13	Y13	Z13	X14	Y14	Z14	X15	Y15	Z15	X16	Y16	Z16	X17	Y17	Z17	X18	Y18	Z18	X19	Y19	Z19	X20	Y20	Z20	X21	Y21	Z21	X22	Y22	Z22	X23	Y23	Z23	X24	Y24	Z24	X25	Y25	Z25	X26	Y26	Z26	X27	Y27	Z27	X28	Y28	Z28	X29	Y29	Z29	X30	Y30	Z30	X31	Y31	Z31	X32	Y32	Z32	X33	Y33	Z33	X34	Y34	Z34	X35	Y35	Z35	X36	Y36	Z36	X37	Y37	Z37	X38	Y38	Z38	X39	Y39	Z39	X40	Y40	Z40	X41	Y41	Z41	X42	Y42	Z42	X43	Y43	Z43	X44	Y44	Z44	X45	Y45	Z45	X46	Y46	Z46	X47	Y47	Z47	X48	Y48	Z48	X49	Y49	Z49	X50	Y50	Z50	X51	Y51	Z51	X52	Y52	Z52	X53	Y53	Z53	X54	Y54	Z54	X55	Y55	Z55	

98	0.97000000	-259.72659	470.87797	-726.99799	-255.46326	400.08087	-699.24025	-273.51736	92.56924	-719.21563	-339.97474	52.74291	-757.56180	-170.33636	44.05119	-686.93841	-128.12393	62.89994	-743.37179	-282.59488	457.23084	-1059.19664	-264.15358	402.97141	-1071.83440	-283.38451	92.03578	-1080.54008	-348.77004	55.49418	-1032.74327	-191.77133	40.28018	-1116.10165	-139.24779	62.34999	-1063.88450	-255.79169	454.36496	-843.26517	-264.81039	94.48928	-799.69045	-256.96270	443.40006	-955.54703	-264.08906	97.44291	-998.45105	-256.70684	290.18581	-690.22180	-330.06100	400.80186	-713.41599	-335.99748	282.33012	-707.83687	-352.24718	408.39025	-1084.66365	-344.61455	287.51249	-1098.07632	-166.76551	772.65861	-753.42454	-170.56267	661.49806	-738.32845	-220.61573	646.64024	-696.71506	-262.79252	783.81133	-698.78590	-272.15166	665.62311	-701.10412	-176.08876	735.84774	-1064.26379	-189.78391	595.34178	-1062.90734	-291.69212	743.28760	-1090.93334	-295.71078	602.02224	-1082.26150	-170.80281	920.31290	-771.37544	-351.53973	935.18652	-854.85665	-159.43720	902.05951	-1030.22182	-349.55238	923.44834	-961.77071	-337.15427	1387.97563	-902.05083	-270.35521	1348.41154	-743.62464	-264.91091	1349.58331	-1067.68092	-206.38965	1326.50539	-882.84355	-207.53370	1326.49723	-925.51869	-243.56988	1108.89299	-664.47301	-275.91435	1004.15409	-718.64520	-270.63210	1024.00528	-649.93212	-215.92783	917.64234	-618.48388	-187.43426	800.92632	-605.77634	-230.06194	793.54349	-601.75525	-216.63285	1222.76048	-1116.67257	-238.94533	1011.53760	-1071.53243	-243.96784	1018.37013	-1131.93116	-195.76004	928.43456	-1171.35883	-170.02662	803.53321	-1174.78009	-205.76783	793.15111	-1175.99179	-236.50741	843.87697	-798.07560	-225.11929	832.14560	-997.69954	-232.56347	840.72558	-800.72795	-229.39647	822.02003	-971.10195	
99	0.98000000	-259.66822	470.73567	-726.99466	-255.50413	400.07566	-699.24160	-273.54361	92.59454	-719.24118	-339.97516	52.72098	-757.58560	-170.35720	44.03900	-686.97520	-128.11898	62.90241	-743.38065	-282.64091	457.21535	-1059.18427	-264.20010	402.93614	-1071.79650	-283.40105	92.04910	-1080.55753	-348.77724	55.46724	-1032.74760	-191.78420	40.26855	-1116.10573	-139.25513	62.33700	-1063.89359	-255.79716	454.37210	-843.26279	-264.81991	94.47542	-799.69044	-257.08401	443.48183	-955.47790	-264.10563	97.41625	-998.44079	-256.74845	290.23562	-690.19322	-330.06751	400.79916	-713.41348	-336.00849	282.30008	-707.83865	-352.28649	408.37139	-1084.65710	-344.64372	287.46781	-1098.06550	-166.81315	772.65273	-753.42878	-170.60586	661.46996	-738.30397	-220.70828	646.63801	-696.72029	-262.86416	783.65690	-698.79549	-272.14361	665.68153	-701.00019	-176.10904	735.85088	-1064.24659	-189.85034	595.31603	-1062.90200	-291.78770	743.24044	-1090.85268	-295.76958	602.01197	-1082.25846	-170.88880	920.28472	-771.38752	-351.62168	935.13242	-854.83000	-159.53673	902.01870	-1030.18418	-349.64468	923.40747	-961.77628	-337.24222	1388.01516	-902.24794	-270.33395	1348.40013	-743.75773	-264.91957	1349.62888	-1067.86814	-206.49028	1326.48513	-882.94410	-207.58062	1326.46663	-925.52427	-243.63396	1108.87368	-664.49680	-275.94032	1004.13921	-718.72445	-270.70603	1024.06405	-649.90062	-215.96293	917.66355	-618.42121	-187.60004	800.90606	-605.80737	-230.18443	793.54419	-601.75944	-216.67412	1222.75038	-1116.68998	-238.95555	1011.53321	-1071.53028	-244.03515	1018.35387	-1131.95476	-195.84699	928.43546	-1171.38090	-170.10487	803.52242	-1174.76904	-205.84767	793.07250	-1175.88673	-236.58996	843.84112	-798.06175	-225.20624	832.10327	-997.68554	-232.62512	840.67438	-800.73513	-229.47612	821.99885	-971.08001	
100	0.99000000	-259.25108	470.03050	-727.13465	-255.61056	400.08296	-699.29387	-273.56217	92.57179	-719.23387	-339.97850	52.70919	-757.62530	-170.40991	44.08073	-687.00130	-128.11551	62.88495	-743.41304	-282.70373	457.18221	-1059.12133	-264.23018	402.93045	-1071.80668	-283.39509	92.09581	-1080.64399	-348.79343	55.43811	-1032.74701	-191.77861	40.24230	-1116.10139	-139.25608	62.34161	-1063.90346	-255.79774	454.39686	-843.28274	-264.82218	94.45771	-799.69707	-257.16079	443.50843	-955.47203	-264.10779	97.43263	-998.45012	-256.79847	290.29778	-690.16520	-330.07374	400.79982	-713.41061	-336.07021	282.29084	-707.90220	-352.33150	408.34913	-1084.65449	-344.65487	287.45663	-1098.08124	-166.86536	772.63850	-753.42869	-170.64550	661.46400	-738.30084	-220.79064	646.68616	-696.73960	-262.84297	783.67590	-698.82040	-272.24688	665.72499	-700.97359	-176.14201	735.84786	-1064.23491	-189.93874	595.27753	-1062.84030	-291.87613	743.24819	-1090.89397	-295.82926	601.99407	-1082.25734	-170.95370	920.29107	-771.43174	-351.68237	935.17333	-854.79665	-159.62397	901.98726	-1030.15604	-349.72778	923.39688	-961.73807	-337.33745	1388.04838	-902.39294	-270.33233	1348.34577	-743.82115	-264.98276	1349.63202	-1067.87469	-206.55812	1326.47413	-883.05700	-207.63444	1326.45755	-925.54261	-243.68116	1108.93470	-664.52362	-275.99045	1004.13599	-718.74781	-270.77871	1024.07750	-649.89686	-216.00644	917.63327	-618.38947	-187.73848	800.90014	-605.84972	-230.34334	793.59459	-601.71134	-216.72377	1222.73510	-1116.71348	-239.05424	1011.45895	-1071.59579	-244.11086	1018.32217	-1131.98010	-195.91957	928.42530	-1171.39615	-170.19726	803.47459	-1174.77284	-205.93550	793.04732	-1175.86770	-236.65815	843.86026	-798.03625	-225.30877	832.08120	-997.65958	-232.70775	840.75351	-800.72381	-229.59533	822.00113	-971.01417	
101	1.00000000	-258.91253	469.40252	-727.25322	-255.63210	400.10046	-699.30462	-273.53856	92.54967	-719.19871	-339.99266	52.70175	-757.66414	-170.40881	44.11773	-686.99705	-128.13088	62.87042	-743.42906	-282.77136	457.12886	-1059.01860	-264.26713	402.91648	-1071.78653	-283.38350	92.11720	-1080.70209	-348.79808	55.42627	-1032.75366	-191.75541	40.20648	-1116.09211	-139.24636	62.35299	-1063.92989	-255.80136	454.38183	-843.26104	-264.82300	94.44341	-799.70258	-257.23948	443.47273	-955.48026	-264.09921	97.45797	-998.45790	-256.79647	290.29632	-690.16709	-330.07569	400.80190	-713.40919	-336.13002	282.31620	-707.95207	-352.37372	408.33000	-1084.65743	-344.68920	287.45291	-1098.07598	-166.92859	772.64685	-753.41911	-170.71752	661.47781	-738.32052	-220.78856	646.73329	-696.75101	-262.84935	783.78815	-698.85007	-272.36248	665.72345	-700.96535	-176.25777	735.83639	-1064.27887	-190.01663	595.24566	-1062.78011	-291.96795	743.26418	-1090.94758	-295.88726	601.98740	-1082.25582	-171.04316	920.30655	-771.48175	-351.73795	935.21642	-854.75159	-159.70123	901.98447	-1030.16703	-349.78454	923.41042	-961.70469	-337.38102	1388.05272	-902.43061	-270.34452	1348.29022	-743.85399	-265.11092	1349.60330	-1067.80251	-206.60758	1326.49073	-883.14674	-207.68202	1326.47530	-925.58447	-243.72649	1109.00864	-664.55733	-276.04180	1004.15194	-718.74121	-270.86791	1024.10777	-649.94804	-216.09160	917.67984	-618.46124	-187.84944	800.92550	-605.88670	-230.50521	793.69896	-601.67536	-216.78792	1222.72081	-1116.76262	-239.26379	1011.34559	-1071.74267	-244.19734	1018.27089	-1131.95120	-195.99070	928.39561	-1171.41205	-170.29531	803.41730	-1174.76485	-206.02518	793.03678	-1175.88221	-236.72115	843.88389	-798.02872	-225.40280	832.08693	-997.65277	-232.80048	840.81006	-800.75009	-229.69082	822.01583	-971.01134	
